<svg width="64" height="64" viewBox="0 0 64 64" fill="none" xmlns="http://www.w3.org/2000/svg">
<path d="M0 0H64V48L48 64H0V0Z" fill="#111111"/>
<path d="M20.255 18.675C20.4417 18.6517 20.7333 18.64 21.13 18.64H22.04C23.6033 18.64 25.1317 18.7567 26.625 18.99C27.395 19.1067 27.99 19.2233 28.41 19.34V24.345C28.06 24.3217 27.4767 24.2633 26.66 24.17C25.5633 24.0533 24.6067 23.995 23.79 23.995C22.88 23.995 22.145 24.03 21.585 24.1C21.0483 24.1467 20.605 24.24 20.255 24.38V18.675ZM22.04 43.28C19.7067 43.28 17.8517 43.0817 16.475 42.685C15.1217 42.265 14.095 41.5767 13.395 40.62C12.7183 39.71 12.2517 38.5083 11.995 37.015C11.7617 35.4983 11.645 33.48 11.645 30.96C11.645 28.7433 11.7267 26.9467 11.89 25.57C12.0767 24.1933 12.4033 23.0383 12.87 22.105C13.36 21.1483 14.0717 20.4133 15.005 19.9C15.9617 19.3633 17.2217 19.0017 18.785 18.815V30.96C18.785 32.2667 18.8083 33.5267 18.855 34.74C18.9017 35.6733 19.0767 36.3733 19.38 36.84C19.7067 37.3067 20.2083 37.5983 20.885 37.715C21.5383 37.855 22.5067 37.925 23.79 37.925C25.12 37.925 26.2517 37.8667 27.185 37.75C27.5583 37.7267 28.0133 37.6683 28.55 37.575V42.65C27.4067 42.9067 26.1117 43.0817 24.665 43.175C23.8717 43.245 22.9967 43.28 22.04 43.28ZM32.1676 18.92H39.1676V43H32.1676V18.92ZM42.0376 34.81H40.6376V29.455H41.8276C42.5509 29.455 43.0992 29.4317 43.4726 29.385C43.8459 29.315 44.1376 29.1983 44.3476 29.035C44.5342 28.8717 44.6626 28.6267 44.7326 28.3C44.8026 27.9733 44.8376 27.495 44.8376 26.865C44.8376 26.235 44.8026 25.7567 44.7326 25.43C44.6626 25.08 44.5342 24.8233 44.3476 24.66C44.1609 24.4967 43.8809 24.3917 43.5076 24.345C43.1576 24.2983 42.5976 24.275 41.8276 24.275H40.6376V18.92H44.2426C45.8992 18.92 47.2409 19.0833 48.2676 19.41C49.2942 19.7367 50.0876 20.2383 50.6476 20.915C51.1609 21.545 51.4992 22.3267 51.6626 23.26C51.8492 24.1933 51.9426 25.395 51.9426 26.865C51.9426 28.755 51.7676 30.2133 51.4176 31.24C50.9276 32.5467 50.0642 33.4683 48.8276 34.005L52.4676 43H45.1176L42.0376 34.81Z" fill="white"/>
</svg>
